<svg width="256" height="256" viewBox="0 0 256 256" fill="none" xmlns="http://www.w3.org/2000/svg">
  <defs>
    <linearGradient id="gradient" x1="0%" y1="0%" x2="100%" y2="100%">
      <stop offset="0%" style="stop-color:#00FFD1;stop-opacity:1" />
      <stop offset="50%" style="stop-color:#00E5B8;stop-opacity:1" />
      <stop offset="100%" style="stop-color:#7ED321;stop-opacity:1" />
    </linearGradient>
  </defs>
  
  <!-- Background -->
  <rect width="256" height="256" fill="#1A2B1A" rx="32"/>
  
  <!-- Main letter 'd' shape -->
  <path d="M60 75 L60 181 L100 181 C140 181 170 151 170 111 C170 71 140 41 100 41 L60 41 L60 75 Z" fill="url(#gradient)" stroke="none"/>
  
  <!-- Vertical line for 'd' -->
  <rect x="170" y="41" width="26" height="140" fill="url(#gradient)"/>
  
  <!-- Inner circle/oval for the 'd' -->
  <ellipse cx="128" cy="111" rx="35" ry="35" fill="#1A2B1A"/>
  
  <!-- Two sparkle/star elements inside -->
  <g transform="translate(128,111)">
    <!-- Left sparkle -->
    <path d="M-15 -8 L-8 -15 L-1 -8 L-8 -1 Z" fill="url(#gradient)"/>
    <path d="M-15 8 L-8 1 L-1 8 L-8 15 Z" fill="url(#gradient)"/>
    
    <!-- Right sparkle -->
    <path d="M1 -8 L8 -15 L15 -8 L8 -1 Z" fill="url(#gradient)"/>
    <path d="M1 8 L8 1 L15 8 L8 15 Z" fill="url(#gradient)"/>
  </g>
</svg>